<svg version="1" xmlns="http://www.w3.org/2000/svg" width="400" height="400" viewBox="0 0 300.000000 300.000000"><path d="M95.5 40c-27.6 5.8-51.2 20.9-68.4 43.5-7.3 9.6-15.5 26.9-18.7 39-3.2 12.3-4.3 32.9-2.5 45.5 4.5 30.2 23.1 60 48.1 77 21.3 14.5 50.8 22.1 74.4 19.2 11-1.4 25.3-5.7 32-9.6 6.4-3.7 6.7-6 2.1-14.3-2-3.8-4.1-7.2-4.6-7.8-.6-.5 1.1-2.2 4.3-4.2l5.3-3.3 2.5 3c2.4 2.9 2.8 3 11.2 3h8.6l4.1-7.1c2.3-3.9 4.1-7.7 4.1-8.4 0-.7-1.1-3.2-2.5-5.7l-2.4-4.4 8.3-8.3c5.1-5 8.6-7.9 9-7.2.4.6 3.5 1.1 7.1 1.1 6.1 0 6.5-.2 8.8-3.2 1.3-1.8 3.3-4.8 4.3-6.6 1.8-3.2 1.8-3.2-.6-7.8-3.4-6.2-5.6-8.4-8.6-8.4h-2.5l.3-13.7.3-13.8 3-.5c2.3-.4 3.7-1.7 6.2-6 1.8-3 3.3-5.9 3.3-6.5 0-.5-1.5-3.5-3.3-6.5l-3.3-5.5H208l-7.6-7.6-7.6-7.6 2.9-5.1 2.8-5.2-3.4-6.2c-5.3-9.9-5.2-9.8-14.7-9.8-8.1 0-8.3.1-10.1 3-.9 1.6-2 3-2.4 3-1.3 0-9.9-5.2-9.9-6 0-.5 1.8-3.9 4-7.8 2.2-3.8 4-7.6 4-8.4 0-5-9.5-10.3-25.6-14.4-12.4-3.1-31.1-3.3-44.9-.4zm65.1 36.6c5.6 3.3 5.8 3.7 3.9 7.4-1.4 2.7-1.4 3.3 0 5.9l1.5 3-5.3 3c-5.7 3.3-5.3 3.4-9.1-2.3-.9-1.5-2.8-2.1-7.5-2.4l-6.2-.4.3-4.2.3-4.1 5-.3c6.3-.3 9.1-1.7 10.6-5.3.6-1.6 1.3-2.9 1.6-2.9.2 0 2.4 1.2 4.9 2.6zm9.1 22.4c1.7 3 1.8 3 11 3 5.6 0 9.4-.4 9.9-1.1.8-1.4 16.4 13.9 16.4 16.1 0 .9-.7 2.5-1.5 3.6-1.7 2.2-2 6-.5 6.9 2.4 1.5.5 4.3-5.5 8.4l-6.5 4.4-2.1-2.1c-1.7-1.9-3-2.2-10.4-2.2-8.2 0-8.4.1-10.5 3l-2.1 3-4.7-2.6c-2.6-1.4-5-2.8-5.4-3-.3-.2 1.4-3.9 3.8-8.1 2.4-4.3 4.4-8.4 4.4-9.2 0-.8-2.1-5-4.6-9.3-2.5-4.4-4.4-8.1-4.2-8.3.7-.8 9.4-5.5 10-5.5.4 0 1.5 1.3 2.5 3zm-64.2 25.7c-3.8 3.7-11.7 11.2-17.3 16.7l-10.4 10.1 3.9 3.4c2.1 1.9 9.8 9.2 17 16.4l13.3 12.9-1.9 2.6c-1 1.5-3.1 3.8-4.5 5.1l-2.6 2.5-4.8-4.4c-2.6-2.5-12.5-12.1-22-21.5l-17.2-17 21.7-21.7 21.8-21.8 5 5 5 5.1-7 6.6zM210 135.4c.6.8 2.1 1.6 3.3 1.8 2.1.3 2.2.8 2.5 14 .2 13.3.2 13.8-1.8 13.8-1.1 0-2.9.9-4 2l-2 2-5.3-3.6c-9-6.3-8.8-5.9-6.3-10.5l2.1-3.9-2.2-3.9-2.2-3.8 6.2-4.6c6.8-5 7.9-5.4 9.7-3.3zm-48.5 6.3c2.5 1.6 4.5 3.1 4.5 3.4 0 .4-.6 1.9-1.4 3.4-1.3 2.5-1.3 3.2 0 5.7 1.8 3.5 1.5 4-4.1 7.1l-4.5 2.5-2.2-3.1c-1.2-1.8-2.3-3.4-2.6-3.7-.2-.3-3.1-.7-6.5-1l-6.2-.5v-8l5.9-.5c4.9-.5 6.2-1 8.2-3.5 1.3-1.7 2.4-3.3 2.4-3.8 0-1.3 1.9-.7 6.5 2zm8.6 21.9c1.6 2.6 1.9 2.7 10.5 2.5 7.6-.1 9.1-.5 10.6-2.2 1.8-2.1 1.8-2.1 7 1.7 8.2 5.9 8.2 6 6.8 9.5-1.1 2.5-1 3.6.5 7l1.9 4-8.2 8.2c-6.4 6.4-8.4 7.9-9.4 6.9-.7-.7-4.3-1.2-9.5-1.2-8.3 0-8.4 0-10.1 3-.9 1.6-2.3 3-3.1 3-1.4 0-10.1-4.7-10.1-5.5 0-.2 2-3.8 4.5-7.9 2.5-4.2 4.5-8.4 4.5-9.3 0-.9-1.8-4.8-4.1-8.6-2.2-3.7-3.8-7.5-3.5-8.2.5-1.4 7.2-5.4 9.1-5.5.6 0 1.8 1.2 2.6 2.6zm-9.3 43.1c2.6 1.5 4.8 2.8 5 2.9.2.1-.3 1.5-1.1 3.1-1.4 2.6-1.4 3.3 0 6.1 1.8 3.7 1.5 4-5.5 7.8-3.4 1.8-3.5 1.8-4.6 0-3.1-5.3-4.4-6.1-10.2-6.6l-5.9-.5v-8l5.7-.3c5.2-.3 6-.6 8.4-3.7 1.5-1.9 2.8-3.5 3.1-3.5.2 0 2.5 1.2 5.1 2.7zM249.7 112.8l-4.7 4.8 17 16.6c9.4 9.1 17 17 16.9 17.5 0 .4-7.7 8-17 16.8s-16.8 16.2-16.8 16.5c.1.3 2.3 2.5 5.1 4.9l4.9 4.5 21.7-21.7c11.9-11.9 21.4-21.8 21.1-21.9-.3-.2-10.1-9.9-22-21.6L254.5 108l-4.8 4.8z"/></svg>